<?xml version="1.0" encoding="utf-8"?>
<!-- Generator: Adobe Illustrator 27.2.0, SVG Export Plug-In . SVG Version: 6.00 Build 0)  -->
<svg version="1.1" id="Layer_1" xmlns="http://www.w3.org/2000/svg" xmlns:xlink="http://www.w3.org/1999/xlink" x="0px" y="0px"
	 viewBox="0 0 4009 1355.03" style="enable-background:new 0 0 4009 1355.03;" xml:space="preserve">
<style type="text/css">
	.st0{fill:url(#SVGID_1_);}
	.st1{fill:#B3B3B3;}
</style>
<linearGradient id="SVGID_1_" gradientUnits="userSpaceOnUse" x1="2826.2178" y1="-156.6195" x2="1013.387" y2="1927.0918">
	<stop  offset="0" style="stop-color:#00FFFF"/>
	<stop  offset="1" style="stop-color:#FF00FF"/>
</linearGradient>
<path class="st0" d="M1347.98,306.72c0.14,0.15,0.27,0.3,0.41,0.45c13.33,14.76,2.93,38.32-16.96,38.32H478.05
	c-12.65,0-22.91-10.26-22.91-22.91v-0.45c0-12.65,10.26-22.91,22.91-22.91h852.97C1337.47,299.22,1343.64,301.93,1347.98,306.72z
	 M1226.13,208.7H478.05c-12.66,0-22.92,10.26-22.92,22.92v0.43c0,12.66,10.26,22.92,22.92,22.92h748.71
	c22.59,0,31.6-29.3,12.84-41.9c-0.21-0.14-0.43-0.29-0.64-0.43C1235.17,210.08,1230.7,208.7,1226.13,208.7z M766.6,425.17
	c0-5.99,4.86-10.85,10.85-10.85H898.5c38.6,0,75.44,7.46,109.03,20.91c1.28,0.51,2.64,0.78,4.02,0.78h399.44
	c11.62,0,18.96-12.48,13.34-22.65c-2.23-4.03-4.5-8.02-6.82-11.99c-4.21-7.2-11.91-11.63-20.25-11.63H465.99
	c-5.99,0-10.85,4.86-10.85,10.85v24.57c0,5.99,4.86,10.85,10.85,10.85h289.77C761.75,436.01,766.6,431.16,766.6,425.17L766.6,425.17
	z M743.97,480.27h-266.2c-12.5,0-22.63,10.13-22.63,22.63l0,0c0,12.5,10.13,22.63,22.63,22.63h266.2c12.5,0,22.63-10.13,22.63-22.63
	l0,0C766.6,490.4,756.47,480.27,743.97,480.27z M1189.22,616.06h273.98c14.01,0,24.7-12.56,22.44-26.39
	c-0.04-0.27-0.09-0.55-0.13-0.82c-1.82-10.99-11.3-19.06-22.43-19.06h-274.13c-15.68,0-26.54,15.47-21.42,30.3
	c0.05,0.16,0.11,0.31,0.16,0.47C1170.85,609.8,1179.46,616.06,1189.22,616.06z M1138.05,525.53h302.27
	c15.49,0,26.27-15.35,21.08-29.95c-0.06-0.16-0.11-0.32-0.17-0.48c-3.17-8.9-11.63-14.83-21.08-14.83h-302.5
	c-18.99,0-29.33,22.13-17.19,36.72c0.13,0.16,0.27,0.32,0.4,0.48C1125.1,522.59,1131.41,525.53,1138.05,525.53z M1181.36,682.66
	c0,1.93-0.02,3.85-0.07,5.77c-0.23,9.95,7.75,18.15,17.71,18.15h275.99c9.68,0,17.53-7.77,17.72-17.44
	c0.07-3.67,0.11-7.34,0.11-11.03c0-0.06,0-0.12,0-0.18c0-9.75-7.98-17.62-17.72-17.62h-276.06c-9.95,0-17.89,8.18-17.71,18.13
	C1181.35,679.85,1181.36,681.25,1181.36,682.66z M743.47,569.79h-265.2c-12.78,0-23.13,10.36-23.13,23.13v0
	c0,12.78,10.36,23.13,23.13,23.13h265.2c12.78,0,23.13-10.36,23.13-23.13v0C766.6,580.15,756.25,569.79,743.47,569.79z
	 M1461.34,750.84h-272.41c-9.76,0-18.36,6.25-21.54,15.48c-0.05,0.16-0.11,0.31-0.16,0.47c-5.13,14.83,5.72,30.32,21.42,30.32
	h272.54c10.96,0,20.34-7.83,22.36-18.6c0.05-0.27,0.1-0.54,0.15-0.81C1486.29,763.72,1475.54,750.84,1461.34,750.84z M896.91,109.6
	H480.08c-13.77,0-24.94,11.17-24.94,24.94l0,0c0,16.51,13.39,29.9,29.9,29.9h629.75c8.35,0,10.51-11.59,2.71-14.56
	C1049.26,123.9,974.83,109.6,896.91,109.6z M1136.9,884.61h300.76c8.89,0,16.87-5.49,20.01-13.81c0.06-0.15,0.12-0.31,0.17-0.46
	c5.28-14.01-5.04-28.98-20.01-28.98h-300.55c-6.37,0-12.41,2.83-16.46,7.74c-0.13,0.15-0.25,0.31-0.38,0.46
	C1108.88,863.51,1118.79,884.61,1136.9,884.61z M455.14,1221.06c0,14.11,11.44,25.56,25.56,25.56h416.22
	c66.44,0,130.34-10.39,190.03-29.56c9.24-2.97,7.11-16.61-2.6-16.61H475.76C464.37,1200.44,455.14,1209.67,455.14,1221.06
	L455.14,1221.06z M743.47,750.84h-265.2c-12.78,0-23.13,10.36-23.13,23.13l0,0c0,12.78,10.36,23.13,23.13,23.13h265.2
	c12.78,0,23.13-10.36,23.13-23.13l0,0C766.6,761.2,756.25,750.84,743.47,750.84z M743.47,660.31h-265.2
	c-12.78,0-23.13,10.36-23.13,23.13l0,0c0,12.78,10.36,23.13,23.13,23.13h265.2c12.78,0,23.13-10.36,23.13-23.13l0,0
	C766.6,670.67,756.25,660.31,743.47,660.31z M1592.95,951.25L1592.95,951.25c0-12.25-9.93-22.18-22.18-22.18h-139.09
	c0.04-0.07,0.07-0.13,0.11-0.2h-415.35c-1.58,0-3.13,0.32-4.59,0.93c-34.74,14.59-73.09,22.71-113.36,22.71H778.42
	c-6.53,0-11.82-5.29-11.82-11.82v0c0-6.53-5.29-11.82-11.82-11.82H475.6c-11.3,0-20.46,9.16-20.46,20.46v0
	c0,14.25,11.55,25.81,25.81,25.81h594.5c-0.06,0.07-0.12,0.14-0.18,0.2h493.6C1582.17,975.34,1592.95,964.55,1592.95,951.25z
	 M1638.52,952.21L1638.52,952.21c0,12.78,10.36,23.13,23.13,23.13h51.95c12.78,0,23.13-10.36,23.13-23.13v0
	c0-12.78-10.36-23.13-23.13-23.13h-51.95C1648.88,929.07,1638.52,939.43,1638.52,952.21z M506.78,1158.13h3257.83
	c33.81,0,61.22-10.86,61.22-24.25l0,0c0-13.39-27.41-24.25-61.22-24.25H506.78c-33.81,0-61.22,10.86-61.22,24.25l0,0
	C445.56,1147.27,472.97,1158.13,506.78,1158.13z M1395.57,1052.41c7.27-15.2-3.8-32.79-20.65-32.79h-1.67
	c0.06-0.08,0.12-0.15,0.18-0.23h-918.3v0.23H328.45c-12.64,0-22.89,10.25-22.89,22.89v0.46c0,12.64,10.25,22.89,22.89,22.89H1374.7
	c8.81,0,16.84-5.05,20.65-12.99C1395.42,1052.72,1395.5,1052.56,1395.57,1052.41z M772.71,856.98c0-8.52-6.9-15.42-15.42-15.43
	l-302.15-0.19v0.2H181.01c-8.54,0-15.45,6.92-15.45,15.45v10.47c0,9.57,7.76,17.32,17.32,17.32h571.99
	c9.85,0,17.83-7.98,17.83-17.83V856.98z"/>
<g id="logo-text">
	<g>
		<path class="st1" d="M1797.67,724.28h226.18v74.07h-142.43v61.53h131.61v72.93h-131.61v61.53h148.7v71.79h-232.45V724.28z
			 M2009.04,1050.17v-39.88h-148.7v-93.44h131.61v-41.02h-131.61v-93.44h142.43v-42.16h-184.02v309.93H2009.04z M1829.01,1040.48
			h174.34v2.85h-177.19L1829.01,1040.48z M1826.73,748.21h170.35v2.85h-167.5L1826.73,748.21z M1838.12,759.6h158.96v2.85h-156.11
			L1838.12,759.6z M1840.97,1029.08h162.37v2.85h-165.22L1840.97,1029.08z M1849.52,771h147.56v2.85h-144.71L1849.52,771z
			 M1852.94,1017.69h150.41v2.85h-153.83L1852.94,1017.69z M1860.34,883.23h125.91v2.85h-125.91V883.23z M1860.34,894.63h125.91
			v2.85h-125.91V894.63z M1860.34,906.02h125.91v2.85h-125.91V906.02z"/>
		<path class="st1" d="M2150.33,965.84c0,19.94,15.95,35.89,35.32,35.89c21.08,0,34.18-11.96,34.18-29.63
			c0-25.64-33.61-33.04-61.53-42.73c-57.54-20.51-89.45-47.29-89.45-105.97c0-60.39,51.85-110.53,116.22-110.53
			c75.78,0,111.67,48.43,116.23,111.67h-78.62c0-19.37-11.96-35.32-35.32-35.32c-18.23,0-35.89,10.82-35.89,33.04
			c0,25.64,31.33,30.2,60.39,38.74c60.96,18.23,89.45,52.42,89.45,105.97c0,60.39-51.28,110.53-115.66,110.53
			c-74.63,0-116.79-50.14-116.79-111.67H2150.33z M2185.66,1061.56c52.99,0,96.29-42.73,96.29-94.58c0-57.54-34.18-78.62-86.6-93.44
			c-33.61-9.69-62.67-17.66-62.67-51.28c0-29.63,22.22-49,52.98-49c35.32,0,47.29,21.08,52.42,35.32h42.73
			c-3.42-33.61-28.49-79.76-95.15-79.76c-52.98,0-97.42,42.73-97.42,94.58c0,42.16,15.95,68.94,78.62,91.16
			c32.47,11.96,71.79,20.51,71.79,57.54c0,30.2-26.21,45.58-52.99,45.58c-29.06-0.57-47.29-17.09-52.42-35.89h-44.44
			C2089.94,1024.53,2131.53,1061.56,2185.66,1061.56z M2093.93,817.14h33.04v2.85h-33.04V817.14z M2093.93,828.54h33.04l0.57,2.85
			h-33.61V828.54z M2096.21,805.18h33.04l-1.14,3.42h-33.04L2096.21,805.18z M2095.07,840.5h34.18l1.14,2.85h-34.75L2095.07,840.5z
			 M2097.92,851.9h38.17l-0.57-0.57l3.42,3.42h-40.45L2097.92,851.9z M2099.06,793.79h34.75l-1.71,2.85h-33.61L2099.06,793.79z
			 M2104.75,781.82h39.31l-3.99,3.42h-37.03L2104.75,781.82z M2103.62,863.86h46.15l4.56,2.85h-49L2103.62,863.86z M2112.16,770.43
			h50.14l-6.27,2.85h-46.15L2112.16,770.43z M2112.73,875.26h65.52l10.82,2.85h-73.5L2112.73,875.26z M2122.99,759.03h62.67v2.85
			h-66.09L2122.99,759.03z M2125.83,886.65h89.45l8.55,3.42h-91.73L2125.83,886.65z M2140.08,747.07h45.58v2.85h-50.14
			L2140.08,747.07z M2239.78,898.62l3.42,2.85h-90.59l-4.56-2.85H2239.78z M2173.69,735.67h11.96v2.85h-25.64L2173.69,735.67z
			 M2255.16,910.01l2.85,3.42h-78.05l-8.55-3.42H2255.16z M2185.66,1026.81h64.95l-2.85,2.85h-62.1V1026.81z M2185.66,1038.2h51.28
			l-3.99,2.85h-47.29V1038.2z M2185.66,1050.17h29.06l-10.83,2.85h-18.23V1050.17z M2264.85,921.97l1.14,2.85h-55.26l-6.27-2.85
			H2264.85z M2220.41,1014.84h40.45l-1.71,2.28l-0.57,1.14h-45.01L2220.41,1014.84z M2269.98,933.37l1.14,2.85h-41.59l-3.42-2.85
			H2269.98z M2233.51,1003.45h33.61l-1.71,2.85h-34.75L2233.51,1003.45z M2236.36,945.33h37.6l1.14,2.85h-37.03L2236.36,945.33z
			 M2240.92,991.48h31.34l-1.14,3.42h-31.91L2240.92,991.48z M2242.06,956.73h33.61v2.85h-33.04L2242.06,956.73z M2243.77,980.09
			h31.33l-0.57,2.85h-31.34L2243.77,980.09z M2244.34,968.69h31.91l-0.57,2.85h-31.33V968.69z"/>
		<path class="st1" d="M2357.72,724.28h83.75v341.84h-83.75V724.28z M2420.39,1050.17V740.23h-41.59v309.93H2420.39z
			 M2384.49,745.36h30.2v2.85h-30.2V745.36z M2384.49,756.75h30.2v2.85h-30.2V756.75z M2384.49,768.15h30.2V771h-30.2V768.15z
			 M2384.49,779.54h30.2v2.85h-30.2V779.54z M2384.49,790.94h30.2v2.85h-30.2V790.94z M2384.49,802.33h30.2v2.85h-30.2V802.33z
			 M2384.49,813.73h30.2v2.85h-30.2V813.73z M2384.49,825.12h30.2v2.85h-30.2V825.12z M2384.49,836.51h30.2v2.85h-30.2V836.51z
			 M2384.49,847.91h30.2v2.85h-30.2V847.91z M2384.49,859.3h30.2v2.85h-30.2V859.3z M2384.49,870.7h30.2v2.85h-30.2V870.7z
			 M2384.49,882.09h30.2v2.85h-30.2V882.09z M2384.49,893.49h30.2v2.85h-30.2V893.49z M2384.49,904.88h30.2v2.85h-30.2V904.88z"/>
		<path class="st1" d="M2679.62,712.88c63.24,0,107.11,23.36,143,59.82l-58.11,53.55c-23.36-21.08-52.42-34.18-84.89-34.18
			c-60.96,0-100.27,45.58-100.27,103.12c0,63.24,45.01,103.12,101.98,103.12c59.82,0,88.88-33.04,91.16-66.09h-97.42v-72.36h188.01
			v32.47c0,100.84-59.25,185.16-183.45,185.16c-108.25,0-185.16-80.33-185.16-182.31S2571.37,712.88,2679.62,712.88z
			 M2679.62,1061.56c109.96,0,162.37-71.22,162.37-165.79v-19.94h-145.85v40.45h99.13c-0.57,46.72-35.32,97.99-115.66,97.99
			c-73.5,0-121.92-52.42-121.92-119.07c0-66.66,48.43-119.07,121.92-119.07c30.2,0,59.82,10.83,83.75,27.35l33.04-31.91
			c-29.63-27.92-67.8-42.73-116.8-42.73c-95.14,0-164.08,73.5-164.08,166.36S2584.47,1061.56,2679.62,1061.56z M2521.8,882.66h30.76
			l-0.57,2.85h-30.77L2521.8,882.66z M2521.23,894.06H2552v2.85h-30.77V894.06z M2521.23,905.45H2552l0.57,2.85h-30.76
			L2521.23,905.45z M2522.94,871.27h31.33l-1.14,2.85h-30.77L2522.94,871.27z M2522.37,916.85h30.77l1.14,2.85h-31.33
			L2522.37,916.85z M2524.65,859.87h31.9l-1.14,2.85h-31.34L2524.65,859.87z M2524.08,928.24h31.34l1.14,2.85h-31.33L2524.08,928.24
			z M2526.93,939.64h31.9l1.14,2.85h-32.47L2526.93,939.64z M2530.35,951.03h33.04l1.71,2.85h-34.18L2530.35,951.03z
			 M2534.33,962.43h35.32l2.28,2.85h-35.89L2534.33,962.43z M2540.03,973.82h37.6l2.85,2.85h-38.74L2540.03,973.82z M2546.87,985.21
			h41.02l2.85,2.85h-42.16L2546.87,985.21z M2555.41,996.61h45.58l3.42,2.85h-47.29L2555.41,996.61z M2620.93,1008l5.7,2.85h-58.68
			l-2.85-2.85H2620.93z M2660.81,1019.4c4.56,0.57,12.53,1.14,18.8,1.14c7.98,0,13.1-0.57,18.23-1.14h89.45l-3.42,2.85h-202.26
			l-3.42-2.85H2660.81z M2773.05,1030.79l-3.99,2.85h-170.92l-3.99-2.85H2773.05z M2751.97,1042.19l-7.41,2.85H2621.5l-7.41-2.85
			H2751.97z M2705.82,1053.58c-4.56,1.14-11.96,1.71-26.21,1.71c-9.12,0-18.8-0.57-26.78-1.71H2705.82z M2703.54,882.66h131.61v2.85
			h-131.61V882.66z M2703.54,894.06h131.61v2.85h-131.61V894.06z M2703.54,905.45h131.61v2.85h-131.61V905.45z M2740.58,1008h59.25
			l-2.85,2.85h-62.1L2740.58,1008z M2762.23,996.61h46.15l-2.28,2.85h-48.43L2762.23,996.61z M2774.76,985.21h39.88l-2.28,2.85
			h-40.45L2774.76,985.21z M2784.45,973.82h35.32l-1.71,2.85h-36.46L2784.45,973.82z M2790.71,962.43h34.18l-1.71,2.85h-34.75
			L2790.71,962.43z M2795.27,951.03h32.47l-1.14,2.85h-32.47L2795.27,951.03z M2799.26,939.64h31.33l-1.14,2.85h-30.77
			L2799.26,939.64z M2801.54,928.24h30.77l-0.57,2.85h-31.34L2801.54,928.24z M2802.68,916.85h30.77v2.85h-31.33L2802.68,916.85z"/>
		<path class="st1" d="M2917.76,724.28h88.31l132.75,202.83V724.28H3222v341.84h-87.17l-133.32-202.83v202.83h-83.75V724.28z
			 M2980.43,1050.17v-241h8.55l158.96,241h52.98V740.23h-41.02v238.15h-10.25l-156.68-238.15h-54.12v309.93H2980.43z M2953.66,746.5
			h35.89l2.28,2.85h-36.46L2953.66,746.5z M2961.63,757.89h35.32l2.28,2.85h-35.89L2961.63,757.89z M2969.04,769.29h35.32l2.28,2.85
			h-35.89L2969.04,769.29z M2977.02,780.68h34.75l2.28,2.85h-35.32L2977.02,780.68z M2984.42,792.08h34.75l2.28,2.85h-35.32
			L2984.42,792.08z M2992.4,803.47h34.18l2.28,2.85h-34.75L2992.4,803.47z M2999.8,814.87h34.75l2.28,2.85h-35.32L2999.8,814.87z
			 M3007.21,826.26h34.75l2.28,2.85h-35.32L3007.21,826.26z M3015.19,837.65h34.18l2.28,2.85h-34.75L3015.19,837.65z
			 M3022.59,849.05h34.18l2.28,2.85h-34.75L3022.59,849.05z M3030,860.44h34.18l2.28,2.85h-34.75L3030,860.44z M3037.41,871.84
			h34.75l2.28,2.85h-35.32L3037.41,871.84z M3044.81,883.23h34.75l2.28,2.85h-35.32L3044.81,883.23z M3052.22,894.63h34.75
			l2.28,2.85h-35.32L3052.22,894.63z M3060.2,906.02h34.18l2.28,2.85h-34.75L3060.2,906.02z M3067.6,917.42h34.18l2.28,2.85h-34.75
			L3067.6,917.42z M3075.01,928.81h34.18l2.28,2.85h-34.75L3075.01,928.81z M3082.42,940.21h34.75l2.28,2.85h-35.32L3082.42,940.21z
			 M3124.58,951.6l2.28,2.85h-35.32l-1.71-2.85H3124.58z M3131.98,963l2.28,2.85h-34.75l-1.71-2.85H3131.98z M3139.39,974.39
			l2.28,2.85h-34.75l-1.71-2.85H3139.39z M3147.94,985.79l2.28,2.85h-35.89l-1.71-2.85H3147.94z M3155.91,997.18l2.85,2.85h-37.03
			l-1.71-2.85H3155.91z M3164.46,1008.57l2.85,2.85h-38.17l-1.71-2.85H3164.46z M3173,1019.97l2.28,2.85h-38.74l-1.71-2.85H3173z
			 M3181.55,1031.36l2.85,2.85h-39.88l-1.71-2.85H3181.55z M3189.53,1041.62l2.85,2.85h-41.59l-1.71-2.85H3189.53z"/>
		<path class="st1" d="M3276.69,724.28h83.75v270.05h148.7v71.79h-232.45V724.28z M3488.06,1050.17v-39.88h-148.7V740.23h-41.59
			v309.93H3488.06z M3308.03,1040.48h174.34v2.85h-177.19L3308.03,1040.48z M3319.99,1029.08h162.37v2.85h-165.22L3319.99,1029.08z
			 M3331.96,1017.69h150.41v2.85h-153.83L3331.96,1017.69z"/>
		<path class="st1" d="M3584.92,900.89l-121.35-176.62h94.58l68.37,102.55l68.37-102.55h94.58L3668.1,900.89v165.22h-83.18V900.89z
			 M3647.02,1050.17V896.91l107.68-156.68h-46.72l-77.48,114.52h-7.98l-77.48-114.52h-46.72L3606,896.91v153.26H3647.02z
			 M3509.71,746.5h32.47l2.28,2.85h-33.04L3509.71,746.5z M3517.12,757.89h32.47l2.28,2.85h-33.04L3517.12,757.89z M3525.09,769.29
			h32.47l2.28,2.85h-33.04L3525.09,769.29z M3533.07,780.68h31.91l2.28,2.85h-32.47L3533.07,780.68z M3540.48,791.51h31.91
			l2.28,2.85h-32.47L3540.48,791.51z M3548.45,802.9h31.34l2.28,2.85h-31.9L3548.45,802.9z M3556.43,814.29h31.33l2.28,2.85h-31.91
			L3556.43,814.29z M3564.41,825.69h30.77l2.28,2.85h-31.33L3564.41,825.69z M3571.81,837.08h31.33l2.28,2.85h-31.33L3571.81,837.08
			z M3579.79,848.48h30.77l2.28,2.85h-31.33L3579.79,848.48z M3587.2,859.87h31.33l2.28,2.85h-31.33L3587.2,859.87z M3595.74,871.27
			h30.2l2.28,2.85h-30.77L3595.74,871.27z M3603.15,882.66h30.77l2.28,2.85h-31.33L3603.15,882.66z M3611.12,894.06h29.06l1.14,2.85
			h-29.63L3611.12,894.06z M3611.69,905.45h29.63v2.28h-29.63V905.45z M3611.69,916.28h29.63v2.85h-29.63V916.28z M3611.69,927.67
			h29.63v2.85h-29.63V927.67z M3611.69,939.07h29.63v2.85h-29.63V939.07z M3611.69,950.46h29.63v2.85h-29.63V950.46z
			 M3611.69,961.86h29.63v2.85h-29.63V961.86z M3611.69,973.25h29.63v2.85h-29.63V973.25z M3611.69,984.65h29.63v2.85h-29.63V984.65
			z M3611.69,996.04h29.63v2.85h-29.63V996.04z M3611.69,1007.43h29.63v2.85h-29.63V1007.43z M3611.69,1018.83h29.63v2.85h-29.63
			V1018.83z M3611.69,1029.65h29.63v2.85h-29.63V1029.65z M3611.69,1041.05h29.63v2.85h-29.63V1041.05z"/>
	</g>
</g>
</svg>
